<svg width="18" height="19" viewBox="0 0 18 19" fill="none" xmlns="http://www.w3.org/2000/svg">
<g clip-path="url(#clip0)">
<path d="M14.2389 2.42924C12.9999 1.23981 11.2852 0.584717 9.4108 0.584717C6.54752 0.584717 4.78648 1.75842 3.81335 2.74297C2.61405 3.95633 1.92633 5.56742 1.92633 7.16324C1.92633 9.16689 2.76441 10.7048 4.1679 11.2769C4.26212 11.3155 4.35693 11.335 4.44987 11.335C4.74595 11.335 4.98055 11.1412 5.06183 10.8305C5.1092 10.6522 5.21899 10.2124 5.26671 10.0214C5.36888 9.64434 5.28633 9.46297 5.06351 9.20039C4.65759 8.7201 4.46857 8.15215 4.46857 7.41299C4.46857 5.21746 6.1034 2.88405 9.13341 2.88405C11.5376 2.88405 13.0311 4.25049 13.0311 6.45009C13.0311 7.83813 12.7321 9.12358 12.189 10.0698C11.8117 10.7273 11.1481 11.511 10.1294 11.511C9.68888 11.511 9.29318 11.3301 9.04349 11.0146C8.80761 10.7164 8.72987 10.3311 8.82473 9.92962C8.9319 9.47598 9.07803 9.00277 9.21945 8.5453C9.47739 7.70977 9.72122 6.92062 9.72122 6.29102C9.72122 5.21409 9.05916 4.49049 8.07391 4.49049C6.82177 4.49049 5.84081 5.76225 5.84081 7.38576C5.84081 8.18199 6.05243 8.77752 6.14822 9.0062C5.99048 9.67453 5.05301 13.6479 4.87518 14.3971C4.77237 14.8345 4.15298 18.2891 5.17817 18.5646C6.33005 18.8741 7.35965 15.5095 7.46444 15.1293C7.54938 14.8201 7.84656 13.651 8.02868 12.9322C8.58473 13.4679 9.48006 13.8299 10.3512 13.8299C11.9936 13.8299 13.4705 13.0909 14.5101 11.7491C15.5184 10.4476 16.0737 8.6336 16.0737 6.64149C16.0737 5.08411 15.4049 3.54878 14.2389 2.42924Z" fill="white"/>
</g>
<defs>
<clipPath id="clip0">
<rect width="18" height="18" fill="white" transform="translate(0 0.584717)"/>
</clipPath>
</defs>
</svg>
