<svg width="18" height="19" viewBox="0 0 18 19" fill="none" xmlns="http://www.w3.org/2000/svg">
<g clip-path="url(#clip0)">
<path d="M18.0001 4.00408C17.3376 4.29764 16.6268 4.49673 15.8799 4.58561C16.6425 4.12893 17.2263 3.40458 17.503 2.54411C16.7876 2.96702 15.998 3.27411 15.1566 3.44058C14.4829 2.72185 13.5246 2.27417 12.4616 2.27417C10.4224 2.27417 8.76895 3.92761 8.76895 5.96573C8.76895 6.25479 8.80157 6.53711 8.86457 6.80708C5.79615 6.65296 3.0753 5.18287 1.25427 2.94902C0.935947 3.49343 0.754859 4.12779 0.754859 4.80493C0.754859 6.08608 1.40724 7.21649 2.39706 7.87784C1.79192 7.85761 1.22277 7.69114 0.724506 7.41443V7.46055C0.724506 9.24896 1.99777 10.7415 3.68606 11.0813C3.37674 11.1645 3.05056 11.2106 2.71312 11.2106C2.47468 11.2106 2.24409 11.187 2.01801 11.142C2.48815 12.6098 3.85142 13.6773 5.46662 13.7065C4.20348 14.6963 2.61077 15.2846 0.880859 15.2846C0.5828 15.2846 0.289211 15.2666 0.000152588 15.234C1.63448 16.2834 3.57474 16.8953 5.66009 16.8953C12.4527 16.8953 16.1656 11.2691 16.1656 6.38979L16.1532 5.91176C16.8787 5.39432 17.5063 4.7442 18.0001 4.00408Z" fill="white"/>
</g>
<defs>
<clipPath id="clip0">
<rect width="18" height="18" fill="white" transform="matrix(1 0 0 -1 0 18.5847)"/>
</clipPath>
</defs>
</svg>
